#N canvas 13 67 1265 628 10;
#N canvas 0 50 450 250 (subpatch) 0;
#X array bird-001R 2.4473e+06 float 2;
#X coords 0 1 2.4473e+06 -1 146 133 1 0 0;
#X restore 204 178 graph;
#X obj 11 27 soundfiler;
#X floatatom 31 48 12 0 0 0 - - -, f 12;
#X obj 11 94 expr 44100 / $f1;
#X obj 11 145 phasor~;
#X floatatom 31 115 12 0 0 0 - - -, f 12;
#X obj 11 196 *~;
#N canvas 0 50 450 250 (subpatch) 0;
#X array bird-001L 2.4473e+06 float 2;
#X coords 0 1 2.4473e+06 -1 146 133 1 0 0;
#X restore 204 31 graph;
#X msg 11 1 read -resize ./soundfile/bird-001.wav bird-001L bird-001R
;
#X obj 11 217 tabread4~ bird-001L;
#X obj 56 238 tabread4~ bird-001R;
#N canvas 0 50 450 250 (subpatch) 0;
#X array bird-002R 918065 float 2;
#X coords 0 1 918065 -1 146 133 1 0 0;
#X restore 757 178 graph;
#X obj 564 27 soundfiler;
#X floatatom 584 48 12 0 0 0 - - -, f 12;
#X obj 564 94 expr 44100 / $f1;
#X obj 564 145 phasor~;
#X floatatom 584 115 12 0 0 0 - - -, f 12;
#X obj 564 196 *~;
#N canvas 0 50 450 250 (subpatch) 0;
#X array bird-002L 918065 float 2;
#X coords 0 1 918065 -1 146 133 1 0 0;
#X restore 757 31 graph;
#X obj 564 217 tabread4~ bird-002L;
#X obj 610 238 tabread4~ bird-002R;
#X msg 564 1 read -resize ./soundfile/bird-002.wav bird-002L bird-002R
;
#N canvas 0 50 450 250 (subpatch) 0;
#X array bird-003R 1.11104e+06 float 2;
#X coords 0 1 1.11104e+06 -1 146 133 1 0 0;
#X restore 397 494 graph;
#X obj 204 342 soundfiler;
#X floatatom 224 363 12 0 0 0 - - -, f 12;
#X obj 204 409 expr 44100 / $f1;
#X obj 204 460 phasor~;
#X floatatom 224 430 12 0 0 0 - - -, f 12;
#X obj 204 511 *~;
#N canvas 0 50 450 250 (subpatch) 0;
#X array bird-003L 1.11104e+06 float 2;
#X coords 0 1 1.11104e+06 -1 146 133 1 0 0;
#X restore 397 347 graph;
#X msg 204 317 read -resize ./soundfile/bird-003.wav bird-003L bird-003R
;
#X obj 204 532 tabread4~ bird-003L;
#X obj 250 553 tabread4~ bird-003R;
#N canvas 0 50 450 250 (subpatch) 0;
#X array bird-004R 1.67496e+06 float 2;
#X coords 0 1 1.67496e+06 -1 146 133 1 0 0;
#X restore 950 494 graph;
#X obj 757 342 soundfiler;
#X floatatom 777 363 12 0 0 0 - - -, f 12;
#X obj 757 409 expr 44100 / $f1;
#X obj 757 460 phasor~;
#X floatatom 777 430 12 0 0 0 - - -, f 12;
#X obj 757 511 *~;
#N canvas 0 50 450 250 (subpatch) 0;
#X array bird-004L 1.67496e+06 float 2;
#X coords 0 1 1.67496e+06 -1 146 133 1 0 0;
#X restore 950 347 graph;
#X msg 757 317 read -resize ./soundfile/bird-004.wav bird-004L bird-004R
;
#X obj 757 532 tabread4~ bird-004L;
#X obj 802 553 tabread4~ bird-004R;
#X msg 925 27 0.5;
#X obj 11 274 *~;
#X obj 56 274 *~;
#X obj 149 114 vsl 45 100 0 1 0 0 empty empty empty 0 -9 0 10 -262144
-1 -1 0 1;
#X obj 564 274 *~;
#X obj 609 274 *~;
#X obj 702 114 vsl 45 100 0 1 0 0 empty empty empty 0 -9 0 10 -262144
-1 -1 2554 1;
#X obj 204 590 *~;
#X obj 249 590 *~;
#X obj 342 430 vsl 45 100 0 1 0 0 empty empty empty 0 -9 0 10 -262144
-1 -1 9900 1;
#X obj 757 590 *~;
#X obj 802 590 *~;
#X obj 895 430 vsl 45 100 0 1 0 0 empty empty empty 0 -9 0 10 -262144
-1 -1 0 1;
#X obj 925 1 loadbang;
#N canvas 13 67 343 465 oneGain 0;
#X obj 18 19 inlet;
#X obj 18 383 outlet;
#X obj 95 353 outlet;
#X obj 18 70 random 5001;
#X obj 18 50 bng 15 250 50 0 empty empty empty 17 7 0 10 -262144 -1
-1;
#X floatatom 58 112 6 0 0 0 - - -, f 6;
#X obj 18 112 t b f;
#X obj 18 196 random 5001;
#X floatatom 58 238 6 0 0 0 - - -, f 6;
#X obj 18 238 t b f;
#X obj 18 259 delay;
#X obj 95 322 line;
#X obj 18 301 del 10000;
#X obj 18 175 del 10000;
#X obj 18 133 delay;
#X obj 175 353 outlet;
#X obj 18 362 spigot;
#X obj 192 276 loadbang;
#X msg 192 297 1;
#X obj 192 19 inlet;
#X msg 192 40 0;
#X obj 51 342 tgl 15 0 empty empty empty 17 7 0 10 -262144 -1 -1 1
1;
#X msg 95 175 1 10000;
#X msg 85 301 0 10000;
#X obj 18 280 t b b;
#X obj 18 154 t b b b;
#X obj 18 91 maxlib/scale 0 5000 10000 90000;
#X obj 18 217 maxlib/scale 0 5000 10000 90000;
#X connect 0 0 4 0;
#X connect 3 0 26 0;
#X connect 4 0 3 0;
#X connect 6 0 14 0;
#X connect 6 1 14 1;
#X connect 7 0 27 0;
#X connect 9 0 10 0;
#X connect 9 1 10 1;
#X connect 10 0 24 0;
#X connect 11 0 2 0;
#X connect 12 0 16 0;
#X connect 13 0 7 0;
#X connect 14 0 25 0;
#X connect 16 0 1 0;
#X connect 17 0 18 0;
#X connect 18 0 21 0;
#X connect 19 0 20 0;
#X connect 20 0 21 0;
#X connect 21 0 16 1;
#X connect 22 0 11 0;
#X connect 23 0 11 0;
#X connect 24 0 12 0;
#X connect 24 1 23 0;
#X connect 25 0 13 0;
#X connect 25 1 22 0;
#X connect 25 2 15 0;
#X connect 26 0 5 0;
#X connect 26 0 6 0;
#X connect 27 0 8 0;
#X connect 27 0 9 0;
#X restore 121 55 pd oneGain;
#N canvas 8 60 426 528 twoGain 0;
#X obj 18 19 inlet;
#X obj 18 383 outlet;
#X obj 95 353 outlet;
#X obj 18 70 random 5001;
#X obj 18 50 bng 15 250 50 0 empty empty empty 17 7 0 10 -262144 -1
-1;
#X floatatom 58 112 6 0 0 0 - - -, f 6;
#X obj 18 112 t b f;
#X obj 18 196 random 5001;
#X floatatom 58 238 6 0 0 0 - - -, f 6;
#X obj 18 238 t b f;
#X obj 18 259 delay;
#X obj 95 322 line;
#X obj 18 301 del 10000;
#X obj 18 175 del 10000;
#X obj 18 133 delay;
#X obj 175 353 outlet;
#X obj 18 362 spigot;
#X obj 192 276 loadbang;
#X msg 192 297 1;
#X obj 192 19 inlet;
#X msg 192 40 0;
#X obj 51 342 tgl 15 0 empty empty empty 17 7 0 10 -262144 -1 -1 1
1;
#X msg 95 175 1 10000;
#X msg 85 301 0 10000;
#X obj 18 154 t b b b;
#X obj 18 280 t b b;
#X obj 18 91 maxlib/scale 0 5000 10000 90000;
#X obj 18 217 maxlib/scale 0 5000 10000 90000;
#X connect 0 0 4 0;
#X connect 3 0 26 0;
#X connect 4 0 3 0;
#X connect 6 0 14 0;
#X connect 6 1 14 1;
#X connect 7 0 27 0;
#X connect 9 0 10 0;
#X connect 9 1 10 1;
#X connect 10 0 25 0;
#X connect 11 0 2 0;
#X connect 12 0 16 0;
#X connect 13 0 7 0;
#X connect 14 0 24 0;
#X connect 16 0 1 0;
#X connect 17 0 18 0;
#X connect 18 0 21 0;
#X connect 19 0 20 0;
#X connect 20 0 21 0;
#X connect 21 0 16 1;
#X connect 22 0 11 0;
#X connect 23 0 11 0;
#X connect 24 0 13 0;
#X connect 24 1 22 0;
#X connect 24 2 15 0;
#X connect 25 0 12 0;
#X connect 25 1 23 0;
#X connect 26 0 5 0;
#X connect 26 0 6 0;
#X connect 27 0 8 0;
#X connect 27 0 9 0;
#X restore 674 55 pd twoGain;
#N canvas 8 60 392 484 threeGain 0;
#X obj 18 19 inlet;
#X obj 18 383 outlet;
#X obj 95 353 outlet;
#X obj 18 70 random 5001;
#X obj 18 50 bng 15 250 50 0 empty empty empty 17 7 0 10 -262144 -1
-1;
#X floatatom 58 112 6 0 0 0 - - -, f 6;
#X obj 18 112 t b f;
#X obj 18 196 random 5001;
#X floatatom 58 238 6 0 0 0 - - -, f 6;
#X obj 18 238 t b f;
#X obj 18 259 delay;
#X obj 95 322 line;
#X obj 18 301 del 10000;
#X obj 18 175 del 10000;
#X obj 18 133 delay;
#X obj 175 353 outlet;
#X obj 18 362 spigot;
#X obj 192 276 loadbang;
#X msg 192 297 1;
#X obj 192 19 inlet;
#X msg 192 40 0;
#X obj 51 342 tgl 15 0 empty empty empty 17 7 0 10 -262144 -1 -1 1
1;
#X msg 95 175 1 10000;
#X msg 85 301 0 10000;
#X obj 18 280 t b b;
#X obj 18 154 t b b b;
#X obj 18 91 maxlib/scale 0 5000 10000 90000;
#X obj 18 217 maxlib/scale 0 5000 10000 90000;
#X connect 0 0 4 0;
#X connect 3 0 26 0;
#X connect 4 0 3 0;
#X connect 6 0 14 0;
#X connect 6 1 14 1;
#X connect 7 0 27 0;
#X connect 9 0 10 0;
#X connect 9 1 10 1;
#X connect 10 0 24 0;
#X connect 11 0 2 0;
#X connect 12 0 16 0;
#X connect 13 0 7 0;
#X connect 14 0 25 0;
#X connect 16 0 1 0;
#X connect 17 0 18 0;
#X connect 18 0 21 0;
#X connect 19 0 20 0;
#X connect 20 0 21 0;
#X connect 21 0 16 1;
#X connect 22 0 11 0;
#X connect 23 0 11 0;
#X connect 24 0 12 0;
#X connect 24 1 23 0;
#X connect 25 0 13 0;
#X connect 25 1 22 0;
#X connect 25 2 15 0;
#X connect 26 0 5 0;
#X connect 26 0 6 0;
#X connect 27 0 8 0;
#X connect 27 0 9 0;
#X restore 308 371 pd threeGain;
#N canvas 13 67 512 502 fourGain 0;
#X obj 18 19 inlet;
#X obj 18 383 outlet;
#X obj 95 353 outlet;
#X obj 18 70 random 5001;
#X obj 18 50 bng 15 250 50 0 empty empty empty 17 7 0 10 -262144 -1
-1;
#X floatatom 58 112 6 0 0 0 - - -, f 6;
#X obj 18 112 t b f;
#X obj 18 196 random 5001;
#X floatatom 58 238 6 0 0 0 - - -, f 6;
#X obj 18 238 t b f;
#X obj 18 259 delay;
#X obj 95 322 line;
#X obj 18 301 del 10000;
#X obj 18 175 del 10000;
#X obj 18 133 delay;
#X obj 175 353 outlet;
#X obj 18 362 spigot;
#X obj 192 276 loadbang;
#X msg 192 297 1;
#X obj 192 19 inlet;
#X msg 192 40 0;
#X obj 51 342 tgl 15 0 empty empty empty 17 7 0 10 -262144 -1 -1 1
1;
#X obj 18 154 t b b b;
#X msg 85 301 0 10000;
#X obj 18 280 t b b;
#X obj 18 91 maxlib/scale 0 5000 10000 90000;
#X obj 18 217 maxlib/scale 0 5000 10000 90000;
#X msg 95 175 0.5 10000;
#X connect 0 0 4 0;
#X connect 3 0 25 0;
#X connect 4 0 3 0;
#X connect 6 0 14 0;
#X connect 6 1 14 1;
#X connect 7 0 26 0;
#X connect 9 0 10 0;
#X connect 9 1 10 1;
#X connect 10 0 24 0;
#X connect 11 0 2 0;
#X connect 12 0 16 0;
#X connect 13 0 7 0;
#X connect 14 0 22 0;
#X connect 16 0 1 0;
#X connect 17 0 18 0;
#X connect 18 0 21 0;
#X connect 19 0 20 0;
#X connect 20 0 21 0;
#X connect 21 0 16 1;
#X connect 22 0 13 0;
#X connect 22 1 27 0;
#X connect 22 2 15 0;
#X connect 23 0 11 0;
#X connect 24 0 12 0;
#X connect 24 1 23 0;
#X connect 25 0 5 0;
#X connect 25 0 6 0;
#X connect 26 0 8 0;
#X connect 26 0 9 0;
#X connect 27 0 11 0;
#X restore 864 371 pd fourGain;
#X obj 121 76 s one;
#X obj 121 35 bng 15 250 50 0 empty empty empty 17 7 0 10 -262144 -1
-1;
#X obj 140 35 r one;
#X obj 674 35 bng 15 250 50 0 empty empty empty 17 7 0 10 -262144 -1
-1;
#X obj 693 35 r two;
#X obj 674 76 s two;
#X obj 308 351 bng 15 250 50 0 empty empty empty 17 7 0 10 -262144
-1 -1;
#X obj 327 351 r three;
#X obj 308 392 s three;
#X obj 864 351 bng 15 250 50 0 empty empty empty 17 7 0 10 -262144
-1 -1;
#X obj 883 351 r four;
#X obj 864 392 s four;
#X obj 178 35 bng 15 250 50 0 empty empty empty 17 7 0 10 -262144 -1
-1;
#X obj 731 35 bng 15 250 50 0 empty empty empty 17 7 0 10 -262144 -1
-1;
#X obj 377 351 bng 15 250 50 0 empty empty empty 17 7 0 10 -262144
-1 -1;
#X obj 927 351 bng 15 250 50 0 empty empty empty 17 7 0 10 -262144
-1 -1;
#X obj 11 295 birdPanner~;
#X obj 204 611 birdPanner~;
#X obj 757 611 birdPanner~;
#X obj 564 295 birdPanner~;
#X obj 11 321 send~ birdGainL0;
#X obj 74 351 send~ birdGainR0;
#X obj 564 321 send~ birdGainL1;
#X obj 627 351 send~ birdGainR1;
#X obj 11 581 send~ birdGainL2;
#X obj 74 611 send~ birdGainR2;
#X obj 564 581 send~ birdGainL3;
#X obj 627 611 send~ birdGainR3;
#X connect 1 0 2 0;
#X connect 1 0 3 0;
#X connect 2 0 6 1;
#X connect 3 0 4 0;
#X connect 3 0 5 0;
#X connect 4 0 6 0;
#X connect 6 0 9 0;
#X connect 6 0 10 0;
#X connect 8 0 1 0;
#X connect 9 0 45 0;
#X connect 10 0 46 0;
#X connect 12 0 13 0;
#X connect 12 0 14 0;
#X connect 13 0 17 1;
#X connect 14 0 15 0;
#X connect 14 0 16 0;
#X connect 15 0 17 0;
#X connect 17 0 19 0;
#X connect 17 0 20 0;
#X connect 19 0 48 0;
#X connect 20 0 49 0;
#X connect 21 0 12 0;
#X connect 23 0 24 0;
#X connect 23 0 25 0;
#X connect 24 0 28 1;
#X connect 25 0 26 0;
#X connect 25 0 27 0;
#X connect 26 0 28 0;
#X connect 28 0 31 0;
#X connect 28 0 32 0;
#X connect 30 0 23 0;
#X connect 31 0 51 0;
#X connect 32 0 52 0;
#X connect 34 0 35 0;
#X connect 34 0 36 0;
#X connect 35 0 39 1;
#X connect 36 0 37 0;
#X connect 36 0 38 0;
#X connect 37 0 39 0;
#X connect 39 0 42 0;
#X connect 39 0 43 0;
#X connect 41 0 34 0;
#X connect 42 0 54 0;
#X connect 43 0 55 0;
#X connect 44 0 78 2;
#X connect 44 0 79 2;
#X connect 44 0 80 2;
#X connect 44 0 81 2;
#X connect 45 0 78 0;
#X connect 46 0 78 1;
#X connect 47 0 45 1;
#X connect 47 0 46 1;
#X connect 48 0 81 0;
#X connect 49 0 81 1;
#X connect 50 0 48 1;
#X connect 50 0 49 1;
#X connect 51 0 79 0;
#X connect 52 0 79 1;
#X connect 53 0 51 1;
#X connect 53 0 52 1;
#X connect 54 0 80 0;
#X connect 55 0 80 1;
#X connect 56 0 54 1;
#X connect 56 0 55 1;
#X connect 57 0 8 0;
#X connect 57 0 21 0;
#X connect 57 0 30 0;
#X connect 57 0 41 0;
#X connect 57 0 44 0;
#X connect 57 0 63 0;
#X connect 57 0 65 0;
#X connect 57 0 68 0;
#X connect 57 0 71 0;
#X connect 58 0 62 0;
#X connect 58 1 47 0;
#X connect 58 2 78 3;
#X connect 59 0 67 0;
#X connect 59 1 50 0;
#X connect 59 2 81 3;
#X connect 60 0 70 0;
#X connect 60 1 53 0;
#X connect 60 2 79 3;
#X connect 61 0 73 0;
#X connect 61 1 56 0;
#X connect 61 2 80 3;
#X connect 63 0 58 0;
#X connect 64 0 58 0;
#X connect 65 0 59 0;
#X connect 66 0 59 0;
#X connect 68 0 60 0;
#X connect 69 0 60 0;
#X connect 71 0 61 0;
#X connect 72 0 61 0;
#X connect 74 0 58 1;
#X connect 75 0 59 1;
#X connect 76 0 60 1;
#X connect 77 0 61 1;
#X connect 78 0 82 0;
#X connect 78 1 83 0;
#X connect 79 0 86 0;
#X connect 79 1 87 0;
#X connect 80 0 88 0;
#X connect 80 1 89 0;
#X connect 81 0 84 0;
#X connect 81 1 85 0;
