#N canvas 395 149 450 300 10;
#X obj 244 27 receive~ birdGainR0;
#X obj 249 48 receive~ birdGainR1;
#X obj 254 69 receive~ birdGainR2;
#X obj 259 90 receive~ birdGainR3;
#X obj 16 27 receive~ birdGainL0;
#X obj 21 48 receive~ birdGainL1;
#X obj 26 69 receive~ birdGainL2;
#X obj 31 90 receive~ birdGainL3;
#X obj 16 136 *~ 0.25;
#X obj 244 136 *~ 0.25;
#X obj 174 27 inlet;
#X obj 402 27 inlet;
#X obj 16 167 outlet~;
#X obj 244 167 outlet~;
#X connect 0 0 9 0;
#X connect 1 0 9 0;
#X connect 2 0 9 0;
#X connect 3 0 9 0;
#X connect 4 0 8 0;
#X connect 5 0 8 0;
#X connect 6 0 8 0;
#X connect 7 0 8 0;
#X connect 8 0 12 0;
#X connect 9 0 13 0;
#X connect 10 0 8 1;
#X connect 11 0 9 1;
