#N canvas 8 60 1265 628 10;
#X msg 55 424 1;
#X msg 86 424 0;
#X obj 72 544 *~ 1;
#X obj 38 544 *~ 1;
#X obj 535 363 select 0 1 2 3 4 5;
#X floatatom 425 156 5 0 0 0 - - -, f 5;
#X msg 425 130 clear;
#X obj 564 151 trigger float;
#X obj 564 130 random 6;
#X floatatom 717 213 10 0 0 0 - - -, f 10;
#X obj 660 238 delay 5000;
#X obj 717 187 trigger bang float;
#X msg 660 204 stop;
#X obj 465 131 bng 15 250 50 0 empty empty empty 17 7 0 10 -262144
-1 -1;
#X obj 717 124 bng 15 250 50 0 empty empty empty 17 7 0 10 -262144
-1 -1;
#X obj 564 105 bng 15 250 50 0 empty empty empty 17 7 0 10 -262144
-1 -1;
#X obj 465 84 trigger bang bang;
#X obj 465 105 delay 500;
#X obj 38 372 loadbang;
#X obj 717 145 random 5001;
#X obj 465 314 +;
#X floatatom 465 335 5 0 0 0 - - -, f 5;
#X floatatom 492 314 5 0 0 0 - - -, f 5;
#X obj 465 273 spigot;
#X obj 498 253 tgl 15 0 empty empty empty 17 7 0 10 -262144 -1 -1 1
1;
#X obj 564 252 spigot;
#X obj 597 232 tgl 15 0 empty empty empty 17 7 0 10 -262144 -1 -1 0
1;
#X obj 465 293 t f;
#X obj 661 53 t b;
#X obj 86 492 t b;
#X obj 660 110 spigot;
#X obj 693 84 tgl 15 0 empty empty empty 17 7 0 10 -262144 -1 -1 0
1;
#X text 271 27 Send a bang to start this patch;
#X text 682 21 Send a bang to stop this patch after the current sample
finishes playing.;
#X obj 465 53 t b b;
#X obj 465 28 bng 15 250 50 0 empty empty empty 17 7 0 10 -262144 -1
-1;
#X obj 661 28 bng 15 250 50 0 empty empty empty 17 7 0 10 -262144 -1
-1;
#X msg 693 53 1;
#X msg 509 53 0;
#X obj 564 172 + 1;
#X floatatom 564 193 5 0 0 0 - - -, f 5;
#X obj 498 234 <= 3;
#X obj 564 213 >= 4;
#X obj 564 293 +;
#X floatatom 591 293 5 0 0 0 - - -, f 5;
#X obj 564 272 t f;
#X obj 564 314 % 6;
#X floatatom 564 335 5 0 0 0 - - -, f 5;
#X obj 591 272 random 4;
#X obj 492 293 random 4;
#X obj 86 518 s stop;
#X obj 648 84 r stop;
#X obj 136 466 s next;
#X obj 717 103 r next;
#X msg 255 424 1;
#X msg 286 424 0;
#X obj 272 544 *~ 1;
#X obj 238 544 *~ 1;
#X obj 286 492 t b;
#X obj 286 518 s stop;
#X obj 398 486 s next;
#X msg 455 424 1;
#X msg 486 424 0;
#X obj 472 544 *~ 1;
#X obj 438 544 *~ 1;
#X obj 486 492 t b;
#X obj 486 518 s stop;
#X obj 563 472 s next;
#X msg 655 424 1;
#X msg 686 424 0;
#X obj 672 544 *~ 1;
#X obj 638 544 *~ 1;
#X obj 686 492 t b;
#X obj 686 518 s stop;
#X obj 763 466 s next;
#X msg 855 424 1;
#X msg 886 424 0;
#X obj 872 544 *~ 1;
#X obj 838 544 *~ 1;
#X obj 886 492 t b;
#X obj 886 518 s stop;
#X msg 1055 424 1;
#X msg 1086 424 0;
#X obj 1072 544 *~ 1;
#X obj 1038 544 *~ 1;
#X obj 1086 492 t b;
#X obj 1086 518 s stop;
#X obj 1184 465 s next;
#X obj 38 446 readsf~ 2;
#X obj 238 446 readsf~ 2;
#X obj 438 446 readsf~ 2;
#X obj 638 446 readsf~ 2;
#X obj 839 446 readsf~ 2;
#X obj 1038 446 readsf~ 2;
#X msg 238 398 open ./soundfile/geyser-002.wav;
#X msg 438 398 open ./soundfile/geyser-003.wav;
#X msg 839 398 open ./soundfile/geyser-005.wav;
#X msg 1038 398 open ./soundfile/geyser-006.wav;
#X msg 638 398 open ./soundfile/geyser-004.wav;
#X msg 38 398 open ./soundfile/geyser-001.wav;
#X obj 100 467 t b b;
#X obj 360 458 t b b;
#X obj 509 465 t b b;
#X obj 719 457 t b b;
#X obj 923 463 t b b;
#X obj 947 464 s next;
#X obj 1125 464 t b b;
#X obj 38 570 geyserPanner~;
#X obj 238 570 geyserPanner~;
#X obj 438 570 geyserPanner~;
#X obj 638 570 geyserPanner~;
#X obj 838 570 geyserPanner~;
#X obj 1038 570 geyserPanner~;
#X obj 38 591 send~ geyserGainL0;
#X obj 58 611 send~ geyserGainR0;
#X obj 238 591 send~ geyserGainL1;
#X obj 258 611 send~ geyserGainR1;
#X obj 438 591 send~ geyserGainL2;
#X obj 458 611 send~ geyserGainR2;
#X obj 638 591 send~ geyserGainL3;
#X obj 658 611 send~ geyserGainR3;
#X obj 838 591 send~ geyserGainL4;
#X obj 858 611 send~ geyserGainR4;
#X obj 1038 591 send~ geyserGainL5;
#X obj 1058 611 send~ geyserGainR5;
#X obj 490 28 inlet;
#X obj 620 28 inlet;
#X obj 465 156 cyclone/urn 6;
#X obj 717 166 maxlib/scale 0 5000 100 20000;
#X connect 0 0 88 0;
#X connect 0 0 107 3;
#X connect 1 0 29 0;
#X connect 1 0 88 0;
#X connect 2 0 107 1;
#X connect 3 0 107 0;
#X connect 4 0 0 0;
#X connect 4 1 54 0;
#X connect 4 2 61 0;
#X connect 4 3 68 0;
#X connect 4 4 75 0;
#X connect 4 5 81 0;
#X connect 6 0 127 0;
#X connect 7 0 39 0;
#X connect 8 0 7 0;
#X connect 9 0 10 1;
#X connect 10 0 13 0;
#X connect 11 0 10 0;
#X connect 11 1 9 0;
#X connect 12 0 10 0;
#X connect 13 0 127 0;
#X connect 14 0 19 0;
#X connect 15 0 8 0;
#X connect 15 0 48 0;
#X connect 15 0 49 0;
#X connect 16 0 17 0;
#X connect 16 1 15 0;
#X connect 17 0 13 0;
#X connect 18 0 37 0;
#X connect 18 0 94 0;
#X connect 18 0 95 0;
#X connect 18 0 96 0;
#X connect 18 0 97 0;
#X connect 18 0 98 0;
#X connect 18 0 99 0;
#X connect 19 0 128 0;
#X connect 20 0 21 0;
#X connect 21 0 4 0;
#X connect 23 0 27 0;
#X connect 24 0 23 1;
#X connect 25 0 45 0;
#X connect 26 0 25 1;
#X connect 27 0 20 0;
#X connect 28 0 37 0;
#X connect 29 0 99 0;
#X connect 30 0 12 0;
#X connect 31 0 30 1;
#X connect 34 0 16 0;
#X connect 34 1 38 0;
#X connect 35 0 34 0;
#X connect 36 0 28 0;
#X connect 37 0 31 0;
#X connect 38 0 31 0;
#X connect 39 0 40 0;
#X connect 40 0 41 0;
#X connect 40 0 42 0;
#X connect 40 0 127 1;
#X connect 41 0 24 0;
#X connect 42 0 26 0;
#X connect 43 0 46 0;
#X connect 45 0 43 0;
#X connect 46 0 47 0;
#X connect 47 0 4 0;
#X connect 48 0 43 1;
#X connect 48 0 44 0;
#X connect 49 0 20 1;
#X connect 49 0 22 0;
#X connect 51 0 30 0;
#X connect 53 0 14 0;
#X connect 54 0 89 0;
#X connect 54 0 108 3;
#X connect 55 0 58 0;
#X connect 55 0 89 0;
#X connect 56 0 108 1;
#X connect 57 0 108 0;
#X connect 58 0 94 0;
#X connect 61 0 90 0;
#X connect 61 0 109 3;
#X connect 62 0 65 0;
#X connect 62 0 90 0;
#X connect 63 0 109 1;
#X connect 64 0 109 0;
#X connect 65 0 95 0;
#X connect 68 0 91 0;
#X connect 68 0 110 3;
#X connect 69 0 72 0;
#X connect 69 0 91 0;
#X connect 70 0 110 1;
#X connect 71 0 110 0;
#X connect 72 0 98 0;
#X connect 75 0 92 0;
#X connect 75 0 111 3;
#X connect 76 0 79 0;
#X connect 76 0 92 0;
#X connect 77 0 111 1;
#X connect 78 0 111 0;
#X connect 79 0 96 0;
#X connect 81 0 93 0;
#X connect 81 0 112 3;
#X connect 82 0 85 0;
#X connect 82 0 93 0;
#X connect 83 0 112 1;
#X connect 84 0 112 0;
#X connect 85 0 97 0;
#X connect 88 0 3 0;
#X connect 88 1 2 0;
#X connect 88 2 29 0;
#X connect 88 2 100 0;
#X connect 89 0 57 0;
#X connect 89 1 56 0;
#X connect 89 2 58 0;
#X connect 89 2 101 0;
#X connect 90 0 64 0;
#X connect 90 1 63 0;
#X connect 90 2 65 0;
#X connect 90 2 102 0;
#X connect 91 0 71 0;
#X connect 91 1 70 0;
#X connect 91 2 72 0;
#X connect 91 2 103 0;
#X connect 92 0 78 0;
#X connect 92 1 77 0;
#X connect 92 2 79 0;
#X connect 92 2 104 0;
#X connect 93 0 84 0;
#X connect 93 1 83 0;
#X connect 93 2 85 0;
#X connect 93 2 106 0;
#X connect 94 0 89 0;
#X connect 95 0 90 0;
#X connect 96 0 92 0;
#X connect 97 0 93 0;
#X connect 98 0 91 0;
#X connect 99 0 88 0;
#X connect 100 0 50 0;
#X connect 100 1 52 0;
#X connect 101 0 59 0;
#X connect 101 1 60 0;
#X connect 102 0 66 0;
#X connect 102 1 67 0;
#X connect 103 0 73 0;
#X connect 103 1 74 0;
#X connect 104 0 80 0;
#X connect 104 1 105 0;
#X connect 106 0 86 0;
#X connect 106 1 87 0;
#X connect 107 0 113 0;
#X connect 107 1 114 0;
#X connect 108 0 115 0;
#X connect 108 1 116 0;
#X connect 109 0 117 0;
#X connect 109 1 118 0;
#X connect 110 0 119 0;
#X connect 110 1 120 0;
#X connect 111 0 121 0;
#X connect 111 1 122 0;
#X connect 112 0 123 0;
#X connect 112 1 124 0;
#X connect 125 0 34 0;
#X connect 126 0 28 0;
#X connect 127 0 5 0;
#X connect 127 0 25 0;
#X connect 127 0 23 0;
#X connect 127 1 16 0;
#X connect 128 0 11 0;
