#N canvas -7 4 536 327 10;
#X obj 49 52 receive~ geyserGainL0;
#X obj 54 73 receive~ geyserGainL1;
#X obj 59 94 receive~ geyserGainL2;
#X obj 64 115 receive~ geyserGainL3;
#X obj 69 136 receive~ geyserGainL4;
#X obj 74 157 receive~ geyserGainL5;
#X obj 289 52 receive~ geyserGainR0;
#X obj 294 73 receive~ geyserGainR1;
#X obj 299 94 receive~ geyserGainR2;
#X obj 304 115 receive~ geyserGainR3;
#X obj 309 136 receive~ geyserGainR4;
#X obj 314 157 receive~ geyserGainR5;
#X obj 49 213 *~ 1;
#X obj 289 213 *~ 1;
#X obj 49 249 outlet~;
#X obj 289 249 outlet~;
#X obj 219 52 inlet;
#X obj 459 52 inlet;
#X connect 0 0 12 0;
#X connect 1 0 12 0;
#X connect 2 0 12 0;
#X connect 3 0 12 0;
#X connect 4 0 12 0;
#X connect 5 0 12 0;
#X connect 6 0 13 0;
#X connect 7 0 13 0;
#X connect 8 0 13 0;
#X connect 9 0 13 0;
#X connect 10 0 13 0;
#X connect 11 0 13 0;
#X connect 12 0 14 0;
#X connect 13 0 15 0;
#X connect 16 0 12 1;
#X connect 17 0 13 1;
