#N canvas 8 60 1265 637 10;
#N canvas 0 50 450 250 (subpatch) 0;
#X array people-005R 4e+06 float 2;
#X coords 0 1 4e+06 -1 146 133 1 0 0;
#X restore 204 178 graph;
#X obj 11 37 soundfiler;
#X floatatom 31 58 12 0 0 0 - - -, f 12;
#X obj 11 84 expr 44100 / $f1;
#X obj 11 128 phasor~;
#X floatatom 31 105 12 0 0 0 - - -, f 12;
#X obj 11 154 *~;
#N canvas 0 50 450 250 (subpatch) 0;
#X array people-005L 4e+06 float 2;
#X coords 0 1 4e+06 -1 146 133 1 0 0;
#X restore 204 31 graph;
#X msg 925 27 0.5;
#X obj 11 227 *~;
#X obj 56 227 *~;
#X obj 149 99 vsl 45 100 0 1 0 0 empty empty empty 0 -9 0 10 -262144
-1 -1 0 1;
#X obj 925 1 loadbang;
#X obj 121 35 bng 15 250 50 0 empty empty empty 17 7 0 10 -262144 -1
-1;
#X obj 178 35 bng 15 250 50 0 empty empty empty 17 7 0 10 -262144 -1
-1;
#X obj 11 248 peoplePanner~;
#N canvas 0 50 450 250 (subpatch) 0;
#X array people-006R 2.00848e+06 float 2;
#X coords 0 1 2.00848e+06 -1 146 133 1 0 0;
#X restore 564 178 graph;
#X obj 371 37 soundfiler;
#X floatatom 391 58 12 0 0 0 - - -, f 12;
#X obj 371 84 expr 44100 / $f1;
#X obj 371 128 phasor~;
#X floatatom 391 105 12 0 0 0 - - -, f 12;
#X obj 371 154 *~;
#N canvas 0 50 450 250 (subpatch) 0;
#X array people-006L 2.00848e+06 float 2;
#X coords 0 1 2.00848e+06 -1 146 133 1 0 0;
#X restore 564 31 graph;
#X obj 371 227 *~;
#X obj 416 227 *~;
#X obj 509 99 vsl 45 100 0 1 0 0 empty empty empty 0 -9 0 10 -262144
-1 -1 0 1;
#X obj 481 35 bng 15 250 50 0 empty empty empty 17 7 0 10 -262144 -1
-1;
#X obj 538 35 bng 15 250 50 0 empty empty empty 17 7 0 10 -262144 -1
-1;
#X obj 371 248 peoplePanner~;
#N canvas 0 50 450 250 (subpatch) 0;
#X array people-007R 4e+06 float 2;
#X coords 0 1 4e+06 -1 146 133 1 0 0;
#X restore 204 498 graph;
#X obj 11 357 soundfiler;
#X floatatom 31 378 12 0 0 0 - - -, f 12;
#X obj 11 404 expr 44100 / $f1;
#X obj 11 448 phasor~;
#X floatatom 31 425 12 0 0 0 - - -, f 12;
#X obj 11 474 *~;
#N canvas 0 50 450 250 (subpatch) 0;
#X array people-007L 4e+06 float 2;
#X coords 0 1 4e+06 -1 146 133 1 0 0;
#X restore 204 351 graph;
#X obj 11 547 *~;
#X obj 56 547 *~;
#X obj 149 419 vsl 45 100 0 1 0 0 empty empty empty 0 -9 0 10 -262144
-1 -1 0 1;
#X obj 121 355 bng 15 250 50 0 empty empty empty 17 7 0 10 -262144
-1 -1;
#X obj 178 355 bng 15 250 50 0 empty empty empty 17 7 0 10 -262144
-1 -1;
#X obj 11 568 peoplePanner~;
#N canvas 0 50 450 250 (subpatch) 0;
#X array people-008R 4e+06 float 2;
#X coords 0 1 4e+06 -1 146 133 1 0 0;
#X restore 564 498 graph;
#X obj 371 357 soundfiler;
#X floatatom 391 378 12 0 0 0 - - -, f 12;
#X obj 371 404 expr 44100 / $f1;
#X obj 371 448 phasor~;
#X floatatom 391 425 12 0 0 0 - - -, f 12;
#X obj 371 474 *~;
#N canvas 0 50 450 250 (subpatch) 0;
#X array people-008L 4e+06 float 2;
#X coords 0 1 4e+06 -1 146 133 1 0 0;
#X restore 564 351 graph;
#X obj 371 547 *~;
#X obj 416 547 *~;
#X obj 509 419 vsl 45 100 0 1 0 0 empty empty empty 0 -9 0 10 -262144
-1 -1 0 1;
#X obj 481 355 bng 15 250 50 0 empty empty empty 17 7 0 10 -262144
-1 -1;
#X obj 538 355 bng 15 250 50 0 empty empty empty 17 7 0 10 -262144
-1 -1;
#X obj 371 568 peoplePanner~;
#X msg 11 1 read -resize ./soundfile/people-005.wav people-005L people-005R
;
#X obj 140 35 r P5;
#X obj 121 76 s P5;
#X obj 11 181 tabread4~ people-005L;
#X obj 56 206 tabread4~ people-005R;
#X obj 11 274 send~ peopleGainL4;
#X obj 74 294 send~ peopleGainR4;
#X msg 371 1 read -resize ./soundfile/people-006.wav people-006L people-006R
;
#X obj 500 35 r P6;
#X obj 481 76 s P6;
#X obj 371 181 tabread4~ people-006L;
#X obj 416 206 tabread4~ people-006R;
#X obj 371 274 send~ peopleGainL5;
#X obj 434 294 send~ peopleGainR5;
#X msg 11 321 read -resize ./soundfile/people-007.wav people-007L people-007R
;
#X obj 140 355 r P7;
#X obj 121 396 s P7;
#X obj 11 501 tabread4~ people-007L;
#X obj 56 526 tabread4~ people-007R;
#X obj 11 594 send~ peopleGainL6;
#X obj 74 614 send~ peopleGainR6;
#X msg 371 321 read -resize ./soundfile/people-008.wav people-008L
people-008R;
#X obj 500 355 r P8;
#X obj 481 396 s P8;
#X obj 371 501 tabread4~ people-008L;
#X obj 416 526 tabread4~ people-008R;
#X obj 371 594 send~ peopleGainL7;
#X obj 435 614 send~ peopleGainR7;
#N canvas 13 67 343 465 fiveGain 0;
#X obj 18 19 inlet;
#X obj 18 383 outlet;
#X obj 95 353 outlet;
#X obj 18 70 random 5001;
#X obj 18 50 bng 15 250 50 0 empty empty empty 17 7 0 10 -262144 -1
-1;
#X floatatom 58 112 6 0 0 0 - - -, f 6;
#X obj 18 112 t b f;
#X obj 18 196 random 5001;
#X floatatom 58 238 6 0 0 0 - - -, f 6;
#X obj 18 238 t b f;
#X obj 18 259 delay;
#X obj 95 322 line;
#X obj 18 301 del 10000;
#X obj 18 175 del 10000;
#X obj 18 133 delay;
#X obj 175 353 outlet;
#X obj 18 362 spigot;
#X obj 192 276 loadbang;
#X msg 192 297 1;
#X obj 192 19 inlet;
#X msg 192 40 0;
#X obj 51 342 tgl 15 0 empty empty empty 17 7 0 10 -262144 -1 -1 1
1;
#X msg 95 175 1 10000;
#X msg 85 301 0 10000;
#X obj 18 280 t b b;
#X obj 18 154 t b b b;
#X obj 18 91 maxlib/scale 0 5000 10000 90000;
#X obj 18 217 maxlib/scale 0 5000 10000 90000;
#X connect 0 0 4 0;
#X connect 3 0 26 0;
#X connect 4 0 3 0;
#X connect 6 0 14 0;
#X connect 6 1 14 1;
#X connect 7 0 27 0;
#X connect 9 0 10 0;
#X connect 9 1 10 1;
#X connect 10 0 24 0;
#X connect 11 0 2 0;
#X connect 12 0 16 0;
#X connect 13 0 7 0;
#X connect 14 0 25 0;
#X connect 16 0 1 0;
#X connect 17 0 18 0;
#X connect 18 0 21 0;
#X connect 19 0 20 0;
#X connect 20 0 21 0;
#X connect 21 0 16 1;
#X connect 22 0 11 0;
#X connect 23 0 11 0;
#X connect 24 0 12 0;
#X connect 24 1 23 0;
#X connect 25 0 13 0;
#X connect 25 1 22 0;
#X connect 25 2 15 0;
#X connect 26 0 5 0;
#X connect 26 0 6 0;
#X connect 27 0 8 0;
#X connect 27 0 9 0;
#X restore 121 55 pd fiveGain;
#N canvas 8 60 343 465 sixGain 0;
#X obj 18 19 inlet;
#X obj 18 383 outlet;
#X obj 95 353 outlet;
#X obj 18 70 random 5001;
#X obj 18 50 bng 15 250 50 0 empty empty empty 17 7 0 10 -262144 -1
-1;
#X floatatom 58 112 6 0 0 0 - - -, f 6;
#X obj 18 112 t b f;
#X obj 18 196 random 5001;
#X floatatom 58 238 6 0 0 0 - - -, f 6;
#X obj 18 238 t b f;
#X obj 18 259 delay;
#X obj 95 322 line;
#X obj 18 301 del 10000;
#X obj 18 175 del 10000;
#X obj 18 133 delay;
#X obj 175 353 outlet;
#X obj 18 362 spigot;
#X obj 192 276 loadbang;
#X msg 192 297 1;
#X obj 192 19 inlet;
#X msg 192 40 0;
#X obj 51 342 tgl 15 0 empty empty empty 17 7 0 10 -262144 -1 -1 1
1;
#X msg 95 175 1 10000;
#X msg 85 301 0 10000;
#X obj 18 280 t b b;
#X obj 18 154 t b b b;
#X obj 18 91 maxlib/scale 0 5000 10000 90000;
#X obj 18 217 maxlib/scale 0 5000 10000 90000;
#X connect 0 0 4 0;
#X connect 3 0 26 0;
#X connect 4 0 3 0;
#X connect 6 0 14 0;
#X connect 6 1 14 1;
#X connect 7 0 27 0;
#X connect 9 0 10 0;
#X connect 9 1 10 1;
#X connect 10 0 24 0;
#X connect 11 0 2 0;
#X connect 12 0 16 0;
#X connect 13 0 7 0;
#X connect 14 0 25 0;
#X connect 16 0 1 0;
#X connect 17 0 18 0;
#X connect 18 0 21 0;
#X connect 19 0 20 0;
#X connect 20 0 21 0;
#X connect 21 0 16 1;
#X connect 22 0 11 0;
#X connect 23 0 11 0;
#X connect 24 0 12 0;
#X connect 24 1 23 0;
#X connect 25 0 13 0;
#X connect 25 1 22 0;
#X connect 25 2 15 0;
#X connect 26 0 5 0;
#X connect 26 0 6 0;
#X connect 27 0 8 0;
#X connect 27 0 9 0;
#X restore 481 55 pd sixGain;
#N canvas 8 60 343 465 sevenGain 0;
#X obj 18 19 inlet;
#X obj 18 383 outlet;
#X obj 95 353 outlet;
#X obj 18 70 random 5001;
#X obj 18 50 bng 15 250 50 0 empty empty empty 17 7 0 10 -262144 -1
-1;
#X floatatom 58 112 6 0 0 0 - - -, f 6;
#X obj 18 112 t b f;
#X obj 18 196 random 5001;
#X floatatom 58 238 6 0 0 0 - - -, f 6;
#X obj 18 238 t b f;
#X obj 18 259 delay;
#X obj 95 322 line;
#X obj 18 301 del 10000;
#X obj 18 175 del 10000;
#X obj 18 133 delay;
#X obj 175 353 outlet;
#X obj 18 362 spigot;
#X obj 192 276 loadbang;
#X msg 192 297 1;
#X obj 192 19 inlet;
#X msg 192 40 0;
#X obj 51 342 tgl 15 0 empty empty empty 17 7 0 10 -262144 -1 -1 1
1;
#X msg 95 175 1 10000;
#X msg 85 301 0 10000;
#X obj 18 280 t b b;
#X obj 18 154 t b b b;
#X obj 18 91 maxlib/scale 0 5000 10000 90000;
#X obj 18 217 maxlib/scale 0 5000 10000 90000;
#X connect 0 0 4 0;
#X connect 3 0 26 0;
#X connect 4 0 3 0;
#X connect 6 0 14 0;
#X connect 6 1 14 1;
#X connect 7 0 27 0;
#X connect 9 0 10 0;
#X connect 9 1 10 1;
#X connect 10 0 24 0;
#X connect 11 0 2 0;
#X connect 12 0 16 0;
#X connect 13 0 7 0;
#X connect 14 0 25 0;
#X connect 16 0 1 0;
#X connect 17 0 18 0;
#X connect 18 0 21 0;
#X connect 19 0 20 0;
#X connect 20 0 21 0;
#X connect 21 0 16 1;
#X connect 22 0 11 0;
#X connect 23 0 11 0;
#X connect 24 0 12 0;
#X connect 24 1 23 0;
#X connect 25 0 13 0;
#X connect 25 1 22 0;
#X connect 25 2 15 0;
#X connect 26 0 5 0;
#X connect 26 0 6 0;
#X connect 27 0 8 0;
#X connect 27 0 9 0;
#X restore 121 375 pd sevenGain;
#N canvas 8 60 343 465 eightGain 0;
#X obj 18 19 inlet;
#X obj 18 383 outlet;
#X obj 95 353 outlet;
#X obj 18 70 random 5001;
#X obj 18 50 bng 15 250 50 0 empty empty empty 17 7 0 10 -262144 -1
-1;
#X floatatom 58 112 6 0 0 0 - - -, f 6;
#X obj 18 112 t b f;
#X obj 18 196 random 5001;
#X floatatom 58 238 6 0 0 0 - - -, f 6;
#X obj 18 238 t b f;
#X obj 18 259 delay;
#X obj 95 322 line;
#X obj 18 301 del 10000;
#X obj 18 175 del 10000;
#X obj 18 133 delay;
#X obj 175 353 outlet;
#X obj 18 362 spigot;
#X obj 192 276 loadbang;
#X msg 192 297 1;
#X obj 192 19 inlet;
#X msg 192 40 0;
#X obj 51 342 tgl 15 0 empty empty empty 17 7 0 10 -262144 -1 -1 1
1;
#X msg 95 175 1 10000;
#X msg 85 301 0 10000;
#X obj 18 280 t b b;
#X obj 18 154 t b b b;
#X obj 18 91 maxlib/scale 0 5000 10000 90000;
#X obj 18 217 maxlib/scale 0 5000 10000 90000;
#X connect 0 0 4 0;
#X connect 3 0 26 0;
#X connect 4 0 3 0;
#X connect 6 0 14 0;
#X connect 6 1 14 1;
#X connect 7 0 27 0;
#X connect 9 0 10 0;
#X connect 9 1 10 1;
#X connect 10 0 24 0;
#X connect 11 0 2 0;
#X connect 12 0 16 0;
#X connect 13 0 7 0;
#X connect 14 0 25 0;
#X connect 16 0 1 0;
#X connect 17 0 18 0;
#X connect 18 0 21 0;
#X connect 19 0 20 0;
#X connect 20 0 21 0;
#X connect 21 0 16 1;
#X connect 22 0 11 0;
#X connect 23 0 11 0;
#X connect 24 0 12 0;
#X connect 24 1 23 0;
#X connect 25 0 13 0;
#X connect 25 1 22 0;
#X connect 25 2 15 0;
#X connect 26 0 5 0;
#X connect 26 0 6 0;
#X connect 27 0 8 0;
#X connect 27 0 9 0;
#X restore 481 375 pd eightGain;
#X connect 1 0 2 0;
#X connect 1 0 3 0;
#X connect 2 0 6 1;
#X connect 3 0 4 0;
#X connect 3 0 5 0;
#X connect 4 0 6 0;
#X connect 6 0 61 0;
#X connect 6 0 62 0;
#X connect 8 0 15 2;
#X connect 8 0 29 2;
#X connect 8 0 43 2;
#X connect 8 0 57 2;
#X connect 9 0 15 0;
#X connect 10 0 15 1;
#X connect 11 0 9 1;
#X connect 11 0 10 1;
#X connect 12 0 58 0;
#X connect 12 0 8 0;
#X connect 12 0 13 0;
#X connect 12 0 65 0;
#X connect 12 0 27 0;
#X connect 12 0 72 0;
#X connect 12 0 41 0;
#X connect 12 0 79 0;
#X connect 12 0 55 0;
#X connect 13 0 86 0;
#X connect 14 0 86 1;
#X connect 15 0 63 0;
#X connect 15 1 64 0;
#X connect 17 0 18 0;
#X connect 17 0 19 0;
#X connect 18 0 22 1;
#X connect 19 0 20 0;
#X connect 19 0 21 0;
#X connect 20 0 22 0;
#X connect 22 0 68 0;
#X connect 22 0 69 0;
#X connect 24 0 29 0;
#X connect 25 0 29 1;
#X connect 26 0 24 1;
#X connect 26 0 25 1;
#X connect 27 0 87 0;
#X connect 28 0 87 1;
#X connect 29 0 70 0;
#X connect 29 1 71 0;
#X connect 31 0 32 0;
#X connect 31 0 33 0;
#X connect 32 0 36 1;
#X connect 33 0 34 0;
#X connect 33 0 35 0;
#X connect 34 0 36 0;
#X connect 36 0 75 0;
#X connect 36 0 76 0;
#X connect 38 0 43 0;
#X connect 39 0 43 1;
#X connect 40 0 38 1;
#X connect 40 0 39 1;
#X connect 41 0 88 0;
#X connect 42 0 88 1;
#X connect 43 0 77 0;
#X connect 43 1 78 0;
#X connect 45 0 46 0;
#X connect 45 0 47 0;
#X connect 46 0 50 1;
#X connect 47 0 48 0;
#X connect 47 0 49 0;
#X connect 48 0 50 0;
#X connect 50 0 82 0;
#X connect 50 0 83 0;
#X connect 52 0 57 0;
#X connect 53 0 57 1;
#X connect 54 0 52 1;
#X connect 54 0 53 1;
#X connect 55 0 89 0;
#X connect 56 0 89 1;
#X connect 57 0 84 0;
#X connect 57 1 85 0;
#X connect 58 0 1 0;
#X connect 59 0 86 0;
#X connect 61 0 9 0;
#X connect 62 0 10 0;
#X connect 65 0 17 0;
#X connect 66 0 87 0;
#X connect 68 0 24 0;
#X connect 69 0 25 0;
#X connect 72 0 31 0;
#X connect 73 0 88 0;
#X connect 75 0 38 0;
#X connect 76 0 39 0;
#X connect 79 0 45 0;
#X connect 80 0 89 0;
#X connect 82 0 52 0;
#X connect 83 0 53 0;
#X connect 86 0 60 0;
#X connect 86 1 11 0;
#X connect 86 2 15 3;
#X connect 87 0 67 0;
#X connect 87 1 26 0;
#X connect 87 2 29 3;
#X connect 88 0 74 0;
#X connect 88 1 40 0;
#X connect 88 2 43 3;
#X connect 89 0 81 0;
#X connect 89 1 54 0;
#X connect 89 2 57 3;
