#N canvas 395 149 450 300 10;
#X obj 16 136 *~ 0.25;
#X obj 244 136 *~ 0.25;
#X obj 174 27 inlet;
#X obj 402 27 inlet;
#X obj 16 167 outlet~;
#X obj 244 167 outlet~;
#X obj 16 27 receive~ peopleGainL0;
#X obj 21 48 receive~ peopleGainL1;
#X obj 26 69 receive~ peopleGainL2;
#X obj 31 90 receive~ peopleGainL3;
#X obj 244 27 receive~ peopleGainR0;
#X obj 249 48 receive~ peopleGainR1;
#X obj 254 69 receive~ peopleGainR2;
#X obj 259 90 receive~ peopleGainR3;
#X connect 0 0 4 0;
#X connect 1 0 5 0;
#X connect 2 0 0 1;
#X connect 3 0 1 1;
#X connect 6 0 0 0;
#X connect 7 0 0 0;
#X connect 8 0 0 0;
#X connect 9 0 0 0;
#X connect 10 0 1 0;
#X connect 11 0 1 0;
#X connect 12 0 1 0;
#X connect 13 0 1 0;
