#N canvas 0 52 1280 628 10;
#N canvas 0 50 450 250 (subpatch) 0;
#X array people-001R 4e+06 float 2;
#X coords 0 1 4e+06 -1 146 133 1 0 0;
#X restore 204 178 graph;
#X obj 11 37 soundfiler;
#X floatatom 31 58 12 0 0 0 - - -, f 12;
#X obj 11 84 expr 44100 / $f1;
#X obj 11 128 phasor~;
#X floatatom 31 105 12 0 0 0 - - -, f 12;
#X obj 11 154 *~;
#N canvas 0 50 450 250 (subpatch) 0;
#X array people-001L 4e+06 float 2;
#X coords 0 1 4e+06 -1 146 133 1 0 0;
#X restore 204 31 graph;
#X msg 925 27 0.5;
#X obj 11 227 *~;
#X obj 56 227 *~;
#X obj 149 99 vsl 45 100 0 1 0 0 empty empty empty 0 -9 0 10 -262144
-1 -1 9900 1;
#X obj 925 1 loadbang;
#N canvas 8 60 343 465 oneGain 0;
#X obj 18 19 inlet;
#X obj 18 383 outlet;
#X obj 95 353 outlet;
#X obj 18 70 random 5001;
#X obj 18 50 bng 15 250 50 0 empty empty empty 17 7 0 10 -262144 -1
-1;
#X floatatom 58 112 6 0 0 0 - - -, f 6;
#X obj 18 112 t b f;
#X obj 18 196 random 5001;
#X floatatom 58 238 6 0 0 0 - - -, f 6;
#X obj 18 238 t b f;
#X obj 18 259 delay;
#X obj 95 322 line;
#X obj 18 301 del 10000;
#X obj 18 175 del 10000;
#X obj 18 133 delay;
#X obj 175 353 outlet;
#X obj 18 362 spigot;
#X obj 192 276 loadbang;
#X msg 192 297 1;
#X obj 192 19 inlet;
#X msg 192 40 0;
#X obj 51 342 tgl 15 0 empty empty empty 17 7 0 10 -262144 -1 -1 1
1;
#X msg 95 175 1 10000;
#X msg 85 301 0 10000;
#X obj 18 280 t b b;
#X obj 18 154 t b b b;
#X obj 18 91 maxlib/scale 0 5000 10000 90000;
#X obj 18 217 maxlib/scale 0 5000 10000 90000;
#X connect 0 0 4 0;
#X connect 3 0 26 0;
#X connect 4 0 3 0;
#X connect 6 0 14 0;
#X connect 6 1 14 1;
#X connect 7 0 27 0;
#X connect 9 0 10 0;
#X connect 9 1 10 1;
#X connect 10 0 24 0;
#X connect 11 0 2 0;
#X connect 12 0 16 0;
#X connect 13 0 7 0;
#X connect 14 0 25 0;
#X connect 16 0 1 0;
#X connect 17 0 18 0;
#X connect 18 0 21 0;
#X connect 19 0 20 0;
#X connect 20 0 21 0;
#X connect 21 0 16 1;
#X connect 22 0 11 0;
#X connect 23 0 11 0;
#X connect 24 0 12 0;
#X connect 24 1 23 0;
#X connect 25 0 13 0;
#X connect 25 1 22 0;
#X connect 25 2 15 0;
#X connect 26 0 5 0;
#X connect 26 0 6 0;
#X connect 27 0 8 0;
#X connect 27 0 9 0;
#X restore 121 55 pd oneGain;
#X obj 121 35 bng 15 250 50 0 empty empty empty 17 7 0 10 -262144 -1
-1;
#X obj 178 35 bng 15 250 50 0 empty empty empty 17 7 0 10 -262144 -1
-1;
#X msg 11 1 read -resize ./soundfile/people-001.wav people-001L people-001R
;
#X obj 11 181 tabread4~ people-001L;
#X obj 56 206 tabread4~ people-001R;
#X obj 11 274 send~ peopleGainL0;
#X obj 74 294 send~ peopleGainR0;
#X obj 11 248 peoplePanner~;
#X obj 121 76 s P1;
#X obj 140 35 r P1;
#N canvas 0 50 450 250 (subpatch) 0;
#X array people-002R 4e+06 float 2;
#X coords 0 1 4e+06 -1 146 133 1 0 0;
#X restore 564 178 graph;
#X obj 371 37 soundfiler;
#X floatatom 391 58 12 0 0 0 - - -, f 12;
#X obj 371 84 expr 44100 / $f1;
#X obj 371 128 phasor~;
#X floatatom 391 105 12 0 0 0 - - -, f 12;
#X obj 371 154 *~;
#N canvas 0 50 450 250 (subpatch) 0;
#X array people-002L 4e+06 float 2;
#X coords 0 1 4e+06 -1 146 133 1 0 0;
#X restore 564 31 graph;
#X obj 371 227 *~;
#X obj 416 227 *~;
#X obj 509 99 vsl 45 100 0 1 0 0 empty empty empty 0 -9 0 10 -262144
-1 -1 9900 1;
#X obj 481 35 bng 15 250 50 0 empty empty empty 17 7 0 10 -262144 -1
-1;
#X obj 538 35 bng 15 250 50 0 empty empty empty 17 7 0 10 -262144 -1
-1;
#X obj 371 248 peoplePanner~;
#X msg 371 1 read -resize ./soundfile/people-002.wav people-002L people-002R
;
#X obj 500 35 r P2;
#X obj 481 76 s P2;
#X obj 371 181 tabread4~ people-002L;
#X obj 416 206 tabread4~ people-002R;
#X obj 371 274 send~ peopleGainL1;
#X obj 434 294 send~ peopleGainR1;
#N canvas 0 50 450 250 (subpatch) 0;
#X array people-003R 4e+06 float 2;
#X coords 0 1 4e+06 -1 146 133 1 0 0;
#X restore 204 498 graph;
#X obj 11 357 soundfiler;
#X floatatom 31 378 12 0 0 0 - - -, f 12;
#X obj 11 404 expr 44100 / $f1;
#X obj 11 448 phasor~;
#X floatatom 31 425 12 0 0 0 - - -, f 12;
#X obj 11 474 *~;
#N canvas 0 50 450 250 (subpatch) 0;
#X array people-003L 4e+06 float 2;
#X coords 0 1 4e+06 -1 146 133 1 0 0;
#X restore 204 351 graph;
#X obj 11 547 *~;
#X obj 56 547 *~;
#X obj 149 419 vsl 45 100 0 1 0 0 empty empty empty 0 -9 0 10 -262144
-1 -1 9900 1;
#X obj 121 355 bng 15 250 50 0 empty empty empty 17 7 0 10 -262144
-1 -1;
#X obj 178 355 bng 15 250 50 0 empty empty empty 17 7 0 10 -262144
-1 -1;
#X obj 11 568 peoplePanner~;
#N canvas 0 50 450 250 (subpatch) 0;
#X array people-004R 4e+06 float 2;
#X coords 0 1 4e+06 -1 146 133 1 0 0;
#X restore 564 498 graph;
#X obj 371 357 soundfiler;
#X floatatom 391 378 12 0 0 0 - - -, f 12;
#X obj 371 404 expr 44100 / $f1;
#X obj 371 448 phasor~;
#X floatatom 391 425 12 0 0 0 - - -, f 12;
#X obj 371 474 *~;
#N canvas 0 50 450 250 (subpatch) 0;
#X array people-004L 4e+06 float 2;
#X coords 0 1 4e+06 -1 146 133 1 0 0;
#X restore 564 351 graph;
#X obj 371 547 *~;
#X obj 416 547 *~;
#X obj 509 419 vsl 45 100 0 1 0 0 empty empty empty 0 -9 0 10 -262144
-1 -1 9900 1;
#X obj 481 355 bng 15 250 50 0 empty empty empty 17 7 0 10 -262144
-1 -1;
#X obj 538 355 bng 15 250 50 0 empty empty empty 17 7 0 10 -262144
-1 -1;
#X obj 371 568 peoplePanner~;
#X msg 11 321 read -resize ./soundfile/people-003.wav people-003L people-003R
;
#X obj 140 355 r P3;
#X obj 121 396 s P3;
#X obj 11 501 tabread4~ people-003L;
#X obj 56 526 tabread4~ people-003R;
#X obj 11 594 send~ peopleGainL2;
#X obj 74 614 send~ peopleGainR2;
#X msg 371 321 read -resize ./soundfile/people-004.wav people-004L
people-004R;
#X obj 500 355 r P4;
#X obj 481 396 s P4;
#X obj 371 501 tabread4~ people-004L;
#X obj 416 526 tabread4~ people-004R;
#X obj 371 594 send~ peopleGainL3;
#X obj 435 614 send~ peopleGainR3;
#N canvas 13 67 343 465 twoGain 0;
#X obj 18 19 inlet;
#X obj 18 383 outlet;
#X obj 95 353 outlet;
#X obj 18 70 random 5001;
#X obj 18 50 bng 15 250 50 0 empty empty empty 17 7 0 10 -262144 -1
-1;
#X floatatom 58 112 6 0 0 0 - - -, f 6;
#X obj 18 112 t b f;
#X obj 18 196 random 5001;
#X floatatom 58 238 6 0 0 0 - - -, f 6;
#X obj 18 238 t b f;
#X obj 18 259 delay;
#X obj 95 322 line;
#X obj 18 301 del 10000;
#X obj 18 175 del 10000;
#X obj 18 133 delay;
#X obj 175 353 outlet;
#X obj 18 362 spigot;
#X obj 192 276 loadbang;
#X msg 192 297 1;
#X obj 192 19 inlet;
#X msg 192 40 0;
#X obj 51 342 tgl 15 0 empty empty empty 17 7 0 10 -262144 -1 -1 1
1;
#X msg 95 175 1 10000;
#X msg 85 301 0 10000;
#X obj 18 280 t b b;
#X obj 18 154 t b b b;
#X obj 18 91 maxlib/scale 0 5000 10000 90000;
#X obj 18 217 maxlib/scale 0 5000 10000 90000;
#X connect 0 0 4 0;
#X connect 3 0 26 0;
#X connect 4 0 3 0;
#X connect 6 0 14 0;
#X connect 6 1 14 1;
#X connect 7 0 27 0;
#X connect 9 0 10 0;
#X connect 9 1 10 1;
#X connect 10 0 24 0;
#X connect 11 0 2 0;
#X connect 12 0 16 0;
#X connect 13 0 7 0;
#X connect 14 0 25 0;
#X connect 16 0 1 0;
#X connect 17 0 18 0;
#X connect 18 0 21 0;
#X connect 19 0 20 0;
#X connect 20 0 21 0;
#X connect 21 0 16 1;
#X connect 22 0 11 0;
#X connect 23 0 11 0;
#X connect 24 0 12 0;
#X connect 24 1 23 0;
#X connect 25 0 13 0;
#X connect 25 1 22 0;
#X connect 25 2 15 0;
#X connect 26 0 5 0;
#X connect 26 0 6 0;
#X connect 27 0 8 0;
#X connect 27 0 9 0;
#X restore 481 55 pd twoGain;
#N canvas 8 60 343 465 threeGain 0;
#X obj 18 19 inlet;
#X obj 18 383 outlet;
#X obj 95 353 outlet;
#X obj 18 70 random 5001;
#X obj 18 50 bng 15 250 50 0 empty empty empty 17 7 0 10 -262144 -1
-1;
#X floatatom 58 112 6 0 0 0 - - -, f 6;
#X obj 18 112 t b f;
#X obj 18 196 random 5001;
#X floatatom 58 238 6 0 0 0 - - -, f 6;
#X obj 18 238 t b f;
#X obj 18 259 delay;
#X obj 95 322 line;
#X obj 18 301 del 10000;
#X obj 18 175 del 10000;
#X obj 18 133 delay;
#X obj 175 353 outlet;
#X obj 18 362 spigot;
#X obj 192 276 loadbang;
#X msg 192 297 1;
#X obj 192 19 inlet;
#X msg 192 40 0;
#X obj 51 342 tgl 15 0 empty empty empty 17 7 0 10 -262144 -1 -1 1
1;
#X msg 95 175 1 10000;
#X msg 85 301 0 10000;
#X obj 18 280 t b b;
#X obj 18 154 t b b b;
#X obj 18 91 maxlib/scale 0 5000 10000 90000;
#X obj 18 217 maxlib/scale 0 5000 10000 90000;
#X connect 0 0 4 0;
#X connect 3 0 26 0;
#X connect 4 0 3 0;
#X connect 6 0 14 0;
#X connect 6 1 14 1;
#X connect 7 0 27 0;
#X connect 9 0 10 0;
#X connect 9 1 10 1;
#X connect 10 0 24 0;
#X connect 11 0 2 0;
#X connect 12 0 16 0;
#X connect 13 0 7 0;
#X connect 14 0 25 0;
#X connect 16 0 1 0;
#X connect 17 0 18 0;
#X connect 18 0 21 0;
#X connect 19 0 20 0;
#X connect 20 0 21 0;
#X connect 21 0 16 1;
#X connect 22 0 11 0;
#X connect 23 0 11 0;
#X connect 24 0 12 0;
#X connect 24 1 23 0;
#X connect 25 0 13 0;
#X connect 25 1 22 0;
#X connect 25 2 15 0;
#X connect 26 0 5 0;
#X connect 26 0 6 0;
#X connect 27 0 8 0;
#X connect 27 0 9 0;
#X restore 121 375 pd threeGain;
#N canvas 8 60 343 465 fourGain 0;
#X obj 18 19 inlet;
#X obj 18 383 outlet;
#X obj 95 353 outlet;
#X obj 18 70 random 5001;
#X obj 18 50 bng 15 250 50 0 empty empty empty 17 7 0 10 -262144 -1
-1;
#X floatatom 58 112 6 0 0 0 - - -, f 6;
#X obj 18 112 t b f;
#X obj 18 196 random 5001;
#X floatatom 58 238 6 0 0 0 - - -, f 6;
#X obj 18 238 t b f;
#X obj 18 259 delay;
#X obj 95 322 line;
#X obj 18 301 del 10000;
#X obj 18 175 del 10000;
#X obj 18 133 delay;
#X obj 175 353 outlet;
#X obj 18 362 spigot;
#X obj 192 276 loadbang;
#X msg 192 297 1;
#X obj 192 19 inlet;
#X msg 192 40 0;
#X obj 51 342 tgl 15 0 empty empty empty 17 7 0 10 -262144 -1 -1 1
1;
#X msg 95 175 1 10000;
#X msg 85 301 0 10000;
#X obj 18 280 t b b;
#X obj 18 154 t b b b;
#X obj 18 91 maxlib/scale 0 5000 10000 90000;
#X obj 18 217 maxlib/scale 0 5000 10000 90000;
#X connect 0 0 4 0;
#X connect 3 0 26 0;
#X connect 4 0 3 0;
#X connect 6 0 14 0;
#X connect 6 1 14 1;
#X connect 7 0 27 0;
#X connect 9 0 10 0;
#X connect 9 1 10 1;
#X connect 10 0 24 0;
#X connect 11 0 2 0;
#X connect 12 0 16 0;
#X connect 13 0 7 0;
#X connect 14 0 25 0;
#X connect 16 0 1 0;
#X connect 17 0 18 0;
#X connect 18 0 21 0;
#X connect 19 0 20 0;
#X connect 20 0 21 0;
#X connect 21 0 16 1;
#X connect 22 0 11 0;
#X connect 23 0 11 0;
#X connect 24 0 12 0;
#X connect 24 1 23 0;
#X connect 25 0 13 0;
#X connect 25 1 22 0;
#X connect 25 2 15 0;
#X connect 26 0 5 0;
#X connect 26 0 6 0;
#X connect 27 0 8 0;
#X connect 27 0 9 0;
#X restore 481 375 pd fourGain;
#X connect 1 0 2 0;
#X connect 1 0 3 0;
#X connect 2 0 6 1;
#X connect 3 0 4 0;
#X connect 3 0 5 0;
#X connect 4 0 6 0;
#X connect 6 0 17 0;
#X connect 6 0 18 0;
#X connect 8 0 21 2;
#X connect 8 0 37 2;
#X connect 8 0 58 2;
#X connect 8 0 72 2;
#X connect 9 0 21 0;
#X connect 10 0 21 1;
#X connect 11 0 9 1;
#X connect 11 0 10 1;
#X connect 12 0 16 0;
#X connect 12 0 8 0;
#X connect 12 0 14 0;
#X connect 12 0 38 0;
#X connect 12 0 35 0;
#X connect 12 0 73 0;
#X connect 12 0 56 0;
#X connect 12 0 80 0;
#X connect 12 0 70 0;
#X connect 13 0 22 0;
#X connect 13 1 11 0;
#X connect 13 2 21 3;
#X connect 14 0 13 0;
#X connect 15 0 13 1;
#X connect 16 0 1 0;
#X connect 17 0 9 0;
#X connect 18 0 10 0;
#X connect 21 0 19 0;
#X connect 21 1 20 0;
#X connect 23 0 13 0;
#X connect 25 0 26 0;
#X connect 25 0 27 0;
#X connect 26 0 30 1;
#X connect 27 0 28 0;
#X connect 27 0 29 0;
#X connect 28 0 30 0;
#X connect 30 0 41 0;
#X connect 30 0 42 0;
#X connect 32 0 37 0;
#X connect 33 0 37 1;
#X connect 34 0 32 1;
#X connect 34 0 33 1;
#X connect 35 0 87 0;
#X connect 36 0 87 1;
#X connect 37 0 43 0;
#X connect 37 1 44 0;
#X connect 38 0 25 0;
#X connect 39 0 87 0;
#X connect 41 0 32 0;
#X connect 42 0 33 0;
#X connect 46 0 47 0;
#X connect 46 0 48 0;
#X connect 47 0 51 1;
#X connect 48 0 49 0;
#X connect 48 0 50 0;
#X connect 49 0 51 0;
#X connect 51 0 76 0;
#X connect 51 0 77 0;
#X connect 53 0 58 0;
#X connect 54 0 58 1;
#X connect 55 0 53 1;
#X connect 55 0 54 1;
#X connect 56 0 88 0;
#X connect 57 0 88 1;
#X connect 58 0 78 0;
#X connect 58 1 79 0;
#X connect 60 0 61 0;
#X connect 60 0 62 0;
#X connect 61 0 65 1;
#X connect 62 0 63 0;
#X connect 62 0 64 0;
#X connect 63 0 65 0;
#X connect 65 0 83 0;
#X connect 65 0 84 0;
#X connect 67 0 72 0;
#X connect 68 0 72 1;
#X connect 69 0 67 1;
#X connect 69 0 68 1;
#X connect 70 0 89 0;
#X connect 71 0 89 1;
#X connect 72 0 85 0;
#X connect 72 1 86 0;
#X connect 73 0 46 0;
#X connect 74 0 88 0;
#X connect 76 0 53 0;
#X connect 77 0 54 0;
#X connect 80 0 60 0;
#X connect 81 0 89 0;
#X connect 83 0 67 0;
#X connect 84 0 68 0;
#X connect 87 0 40 0;
#X connect 87 1 34 0;
#X connect 87 2 37 3;
#X connect 88 0 75 0;
#X connect 88 1 55 0;
#X connect 88 2 58 3;
#X connect 89 0 82 0;
#X connect 89 1 69 0;
#X connect 89 2 72 3;
