#N canvas -11 31 1265 628 10;
#X obj 58 260 riverGroup~;
#X obj 58 351 riverBus~;
#X obj 55 537 dac~ 1 2;
#X obj 58 288 vsl 30 50 0 1 0 0 empty empty empty 0 -9 0 10 -262144
-1 -1 4900 1;
#X obj 58 235 bng 15 250 50 0 empty empty empty 17 7 0 10 -262144 -1
-1;
#X obj 121 235 bng 15 250 50 0 empty empty empty 17 7 0 10 -262144
-1 -1;
#X obj 148 260 geyserGroup~;
#X obj 148 351 geyserBus~;
#X obj 148 235 bng 15 250 50 0 empty empty empty 17 7 0 10 -262144
-1 -1;
#X obj 217 235 bng 15 250 50 0 empty empty empty 17 7 0 10 -262144
-1 -1;
#X obj 148 288 vsl 30 50 0 1 0 0 empty empty empty 0 -9 0 10 -262144
-1 -1 4900 1;
#X obj 238 288 vsl 30 50 0 1 0 0 empty empty empty 0 -9 0 10 -262144
-1 -1 4900 1;
#X obj 238 260 birdGroup~;
#X obj 238 351 birdBus~;
#X obj 58 427 *~ 0.33;
#X obj 108 427 *~ 0.33;
#X obj 330 287 vsl 30 50 0 1 0 0 empty empty empty 0 -9 0 10 -262144
-1 -1 4900 1;
#X obj 688 288 vsl 30 50 0 1 0 0 empty empty empty 0 -9 0 10 -262144
-1 -1 0 1;
#X obj 450 260 peopleGroupSoft~;
#X obj 568 260 peopleGroupLoud~;
#X obj 450 351 peopleBusSoft~;
#X obj 568 351 peopleBusLoud~;
#X obj 450 288 vsl 30 50 0 1 0 0 empty empty empty 0 -9 0 10 -262144
-1 -1 4900 1;
#X obj 568 288 vsl 30 50 0 1 0 0 empty empty empty 0 -9 0 10 -262144
-1 -1 0 1;
#X obj 450 460 *~ 0.5;
#X obj 546 460 *~ 0.5;
#X obj 392 134 tgl 15 0 empty empty empty 17 7 0 10 -262144 -1 -1 1
1;
#X msg 392 154 \; pd dsp \$1;
#X obj 58 41 random 10001;
#X obj 58 83 t b f;
#X obj 58 104 delay;
#X floatatom 128 146 5 0 0 0 - - -, f 5;
#X obj 58 146 select 0 1;
#X obj 58 167 t b b;
#X obj 58 188 del 60000;
#X obj 31 209 t b b;
#X obj 118 167 t b b;
#X obj 118 188 del 60000;
#X obj 118 209 t b b;
#X floatatom 370 326 5 0 0 0 - - -, f 5;
#X obj 58 21 bng 15 250 50 0 empty empty empty 17 7 0 10 -262144 -1
-1;
#X obj 352 21 loadbang;
#X floatatom 98 83 6 0 0 0 - - -, f 6;
#X msg 392 63 1;
#X obj 330 372 sqrt;
#X obj 173 471 vsl 30 50 0 1 0 0 empty empty empty 0 -9 0 10 -262144
-1 -1 4900 1;
#X obj 57 508 *~ 0.5;
#X obj 107 508 *~ 0.5;
#X obj 352 62 t b b;
#X obj 419 126 line;
#X obj 392 84 t f b;
#X msg 419 105 1 5000;
#X obj 58 125 cyclone/counter 0 1;
#X obj 58 62 maxlib/scale 0 10000 120000 300000;
#X obj 797 16 arduino-input;
#X floatatom 751 37 5 0 0 0 - - -, f 5;
#X obj 330 351 expr 1.0-$f1;
#X obj 330 208 expr 1.0-$f1;
#X obj 797 85 vsl 30 50 0 1 0 0 empty empty empty 0 -9 0 10 -262144
-1 -1 0 1;
#X obj 797 226 line~;
#X msg 797 203 \$1 10;
#X obj 799 317 snapshot~;
#X obj 799 383 vsl 30 50 0 1 0 0 empty empty empty 0 -9 0 10 -262144
-1 -1 0 1;
#X obj 728 281 tgl 15 0 empty empty empty 17 7 0 10 -262144 -1 -1 1
1;
#X obj 727 258 loadbang;
#X obj 796 271 lop~ 10;
#X obj 798 293 lop~ 18;
#X floatatom 886 80 5 0 0 0 - - -, f 5;
#X floatatom 846 204 5 0 0 0 - - -, f 5;
#X floatatom 839 339 5 0 0 0 - - -, f 5;
#X obj 799 339 min 1;
#X floatatom 809 361 5 0 0 0 - - -, f 5;
#X floatatom 839 38 5 0 0 0 - - -, f 5;
#X obj 450 377 hip~ 100;
#X obj 460 397 hip~ 100;
#X obj 545 377 hip~ 100;
#X obj 555 397 hip~ 100;
#X obj 1007 85 vsl 30 50 0 1 0 0 empty empty empty 0 -9 0 10 -262144
-1 -1 0 1;
#X obj 797 155 +;
#X floatatom 837 157 5 0 0 0 - - -, f 5;
#X obj 449 419 cyclone/pong~ 0 -0.5 0.5;
#X obj 545 439 cyclone/pong~ 0 -0.5 0.5;
#X msg 856 128 0;
#X obj 729 300 metro 25;
#X obj 797 59 maxlib/scale 0.01 0.08 -0.3 1;
#X obj 1007 59 maxlib/scale 0.01 0.08 -0.3 1;
#X obj 330 260 line;
#X msg 330 234 \$1 1250;
#X obj 797 248 lop~ 2;
#X obj 352 42 del 30000;
#X obj 797 177 mapping/threshold 0.45;
#X obj 799 441 mapping/threshold 0.2;
#X connect 1 0 14 0;
#X connect 1 1 15 0;
#X connect 3 0 1 0;
#X connect 3 0 1 1;
#X connect 4 0 0 0;
#X connect 5 0 0 1;
#X connect 7 0 14 0;
#X connect 7 1 15 0;
#X connect 8 0 6 0;
#X connect 9 0 6 1;
#X connect 10 0 7 0;
#X connect 10 0 7 1;
#X connect 11 0 13 0;
#X connect 11 0 13 1;
#X connect 13 0 14 0;
#X connect 13 1 15 0;
#X connect 14 0 46 0;
#X connect 15 0 47 0;
#X connect 16 0 14 1;
#X connect 16 0 15 1;
#X connect 16 0 39 0;
#X connect 16 0 56 0;
#X connect 17 0 24 1;
#X connect 17 0 25 1;
#X connect 20 0 73 0;
#X connect 20 1 75 0;
#X connect 21 0 74 0;
#X connect 21 1 76 0;
#X connect 22 0 20 0;
#X connect 22 0 20 1;
#X connect 23 0 21 0;
#X connect 23 0 21 1;
#X connect 24 0 46 0;
#X connect 25 0 47 0;
#X connect 26 0 27 0;
#X connect 28 0 53 0;
#X connect 29 0 30 0;
#X connect 29 1 30 1;
#X connect 30 0 52 0;
#X connect 32 0 33 0;
#X connect 32 1 36 0;
#X connect 33 0 34 0;
#X connect 33 1 9 0;
#X connect 34 0 35 0;
#X connect 35 0 40 0;
#X connect 35 1 4 0;
#X connect 36 0 37 0;
#X connect 36 1 5 0;
#X connect 37 0 38 0;
#X connect 38 0 40 0;
#X connect 38 1 8 0;
#X connect 40 0 28 0;
#X connect 41 0 89 0;
#X connect 43 0 50 0;
#X connect 44 0 17 0;
#X connect 45 0 46 1;
#X connect 45 0 47 1;
#X connect 46 0 2 0;
#X connect 47 0 2 1;
#X connect 48 0 40 0;
#X connect 48 1 8 0;
#X connect 49 0 3 0;
#X connect 49 0 10 0;
#X connect 49 0 11 0;
#X connect 49 0 16 0;
#X connect 49 0 45 0;
#X connect 49 0 22 0;
#X connect 50 0 26 0;
#X connect 50 1 51 0;
#X connect 51 0 49 0;
#X connect 52 0 31 0;
#X connect 52 0 32 0;
#X connect 53 0 29 0;
#X connect 53 0 42 0;
#X connect 54 0 55 0;
#X connect 54 0 84 0;
#X connect 54 1 72 0;
#X connect 54 1 85 0;
#X connect 56 0 44 0;
#X connect 56 0 23 0;
#X connect 57 0 87 0;
#X connect 58 0 78 0;
#X connect 59 0 88 0;
#X connect 60 0 59 0;
#X connect 61 0 69 0;
#X connect 61 0 70 0;
#X connect 62 0 91 0;
#X connect 63 0 83 0;
#X connect 64 0 63 0;
#X connect 65 0 66 0;
#X connect 66 0 61 0;
#X connect 70 0 62 0;
#X connect 70 0 71 0;
#X connect 73 0 80 0;
#X connect 74 0 80 0;
#X connect 75 0 81 0;
#X connect 76 0 81 0;
#X connect 77 0 78 1;
#X connect 78 0 79 0;
#X connect 78 0 90 0;
#X connect 80 0 24 0;
#X connect 81 0 25 0;
#X connect 82 0 78 1;
#X connect 83 0 61 0;
#X connect 84 0 67 0;
#X connect 84 0 58 0;
#X connect 85 0 77 0;
#X connect 86 0 16 0;
#X connect 87 0 86 0;
#X connect 88 0 65 0;
#X connect 89 0 43 0;
#X connect 89 0 48 0;
#X connect 90 0 68 0;
#X connect 90 0 60 0;
#X connect 91 0 57 0;
