#N canvas 349 62 637 300 10;
#X obj 46 37 receive~ riverGainL0;
#X obj 290 37 receive~ riverGainR0;
#X obj 46 242 outlet~;
#X obj 290 241 outlet~;
#X obj 51 58 receive~ riverGainL1;
#X obj 56 80 receive~ riverGainL2;
#X obj 61 101 receive~ riverGainL3;
#X obj 66 122 receive~ riverGainL4;
#X obj 71 143 receive~ riverGainL5;
#X obj 76 164 receive~ riverGainL6;
#X obj 81 185 receive~ riverGainL7;
#X obj 295 58 receive~ riverGainR1;
#X obj 300 79 receive~ riverGainR2;
#X obj 305 100 receive~ riverGainR3;
#X obj 310 121 receive~ riverGainR4;
#X obj 315 142 receive~ riverGainR5;
#X obj 320 163 receive~ riverGainR6;
#X obj 325 184 receive~ riverGainR7;
#X obj 46 211 *~ 1;
#X obj 290 210 *~ 1;
#X obj 210 37 inlet;
#X obj 454 37 inlet;
#X connect 0 0 18 0;
#X connect 1 0 19 0;
#X connect 4 0 18 0;
#X connect 5 0 18 0;
#X connect 6 0 18 0;
#X connect 7 0 18 0;
#X connect 8 0 18 0;
#X connect 9 0 18 0;
#X connect 10 0 18 0;
#X connect 11 0 19 0;
#X connect 12 0 19 0;
#X connect 13 0 19 0;
#X connect 14 0 19 0;
#X connect 15 0 19 0;
#X connect 16 0 19 0;
#X connect 17 0 19 0;
#X connect 18 0 2 0;
#X connect 19 0 3 0;
#X connect 20 0 18 1;
#X connect 21 0 19 1;
