#N canvas 558 58 552 545 10;
#X obj 24 238 *~;
#X obj 279 238 *~;
#X obj 108 92 hsl 128 15 0 127 0 0 empty empty empty -2 -8 0 10 -262144
-1 -1 5100 1;
#X obj 105 117 / 127;
#X floatatom 105 143 5 0 0 0 - - -, f 5;
#X obj 294 186 expr 1.0-$f1;
#X floatatom 311 239 5 0 0 0 - - -, f 5;
#X obj 39 212 sqrt;
#X floatatom 56 239 5 0 0 0 - - -, f 5;
#X obj 294 212 sqrt;
#X obj 23 16 inlet~;
#X obj 280 17 inlet~;
#X obj 366 66 random 128;
#X obj 366 41 bng 15 250 50 0 empty empty empty 17 7 0 10 -262144 -1
-1;
#X obj 326 17 inlet;
#X obj 366 17 inlet;
#X obj 24 275 outlet~;
#X obj 278 275 outlet~;
#X connect 0 0 16 0;
#X connect 1 0 17 0;
#X connect 2 0 3 0;
#X connect 3 0 4 0;
#X connect 4 0 5 0;
#X connect 4 0 7 0;
#X connect 5 0 9 0;
#X connect 7 0 8 0;
#X connect 7 0 0 1;
#X connect 9 0 6 0;
#X connect 9 0 1 1;
#X connect 10 0 0 0;
#X connect 11 0 1 0;
#X connect 12 0 2 0;
#X connect 13 0 12 0;
#X connect 14 0 4 0;
#X connect 15 0 13 0;
