#N canvas 8 60 1265 628 10;
#X msg 55 424 1;
#X msg 86 424 0;
#X obj 72 539 *~ 1;
#X obj 38 539 *~ 1;
#X floatatom 170 147 5 0 0 0 - - -, f 5;
#X msg 170 121 clear;
#X obj 309 142 trigger float;
#X obj 309 121 random 6;
#X floatatom 462 204 10 0 0 0 - - -, f 10;
#X obj 405 229 delay 5000;
#X obj 462 178 trigger bang float;
#X msg 405 195 stop;
#X obj 210 122 bng 15 250 50 0 empty empty empty 17 7 0 10 -262144
-1 -1;
#X obj 462 115 bng 15 250 50 0 empty empty empty 17 7 0 10 -262144
-1 -1;
#X obj 309 96 bng 15 250 50 0 empty empty empty 17 7 0 10 -262144 -1
-1;
#X obj 210 75 trigger bang bang;
#X obj 210 96 delay 500;
#X obj 38 372 loadbang;
#X obj 462 136 random 5001;
#X obj 210 305 +;
#X floatatom 210 326 5 0 0 0 - - -, f 5;
#X floatatom 237 305 5 0 0 0 - - -, f 5;
#X obj 210 264 spigot;
#X obj 243 244 tgl 15 0 empty empty empty 17 7 0 10 -262144 -1 -1 0
1;
#X obj 309 243 spigot;
#X obj 342 223 tgl 15 0 empty empty empty 17 7 0 10 -262144 -1 -1 0
1;
#X obj 210 284 t f;
#X obj 406 44 t b;
#X obj 45 493 t b;
#X obj 405 101 spigot;
#X obj 438 75 tgl 15 0 empty empty empty 17 7 0 10 -262144 -1 -1 1
1;
#X text 16 18 Send a bang to start this patch;
#X text 427 12 Send a bang to stop this patch after the current sample
finishes playing.;
#X obj 210 44 t b b;
#X obj 210 19 bng 15 250 50 0 empty empty empty 17 7 0 10 -262144 -1
-1;
#X obj 406 19 bng 15 250 50 0 empty empty empty 17 7 0 10 -262144 -1
-1;
#X msg 438 44 1;
#X msg 254 44 0;
#X obj 309 163 + 1;
#X floatatom 309 184 5 0 0 0 - - -, f 5;
#X obj 309 284 +;
#X floatatom 336 284 5 0 0 0 - - -, f 5;
#X obj 309 263 t f;
#X floatatom 309 326 5 0 0 0 - - -, f 5;
#X obj 89 519 s stop;
#X obj 393 75 r stop;
#X obj 116 498 s next;
#X obj 462 94 r next;
#X msg 255 424 1;
#X msg 286 424 0;
#X obj 272 539 *~ 1;
#X obj 238 539 *~ 1;
#X obj 276 476 t b;
#X obj 286 513 s stop;
#X obj 319 491 s next;
#X msg 455 424 1;
#X msg 486 424 0;
#X obj 472 539 *~ 1;
#X obj 438 539 *~ 1;
#X obj 486 487 t b;
#X obj 486 513 s stop;
#X obj 519 488 s next;
#X msg 655 424 1;
#X msg 686 424 0;
#X obj 672 539 *~ 1;
#X obj 638 539 *~ 1;
#X obj 686 487 t b;
#X obj 686 513 s stop;
#X obj 722 487 s next;
#X msg 855 424 1;
#X msg 886 424 0;
#X obj 872 539 *~ 1;
#X obj 838 539 *~ 1;
#X obj 886 497 t b;
#X obj 886 519 s stop;
#X msg 1055 424 1;
#X msg 1086 424 0;
#X obj 1072 539 *~ 1;
#X obj 1038 539 *~ 1;
#X obj 1086 487 t b;
#X obj 1086 513 s stop;
#X obj 1116 494 s next;
#X obj 38 456 readsf~ 2;
#X obj 238 456 readsf~ 2;
#X obj 438 456 readsf~ 2;
#X obj 638 456 readsf~ 2;
#X obj 839 456 readsf~ 2;
#X obj 1038 456 readsf~ 2;
#X obj 89 477 t b b;
#X obj 309 465 t b b;
#X obj 509 465 t b b;
#X obj 719 457 t b b;
#X obj 895 474 t b b;
#X obj 917 502 s next;
#X obj 1098 473 t b b;
#X msg 38 398 open ./soundfile/river-001.wav;
#X msg 238 398 open ./soundfile/river-002.wav;
#X msg 438 398 open ./soundfile/river-003.wav;
#X msg 638 398 open ./soundfile/river-004.wav;
#X msg 839 398 open ./soundfile/river-005.wav;
#X msg 1038 398 open ./soundfile/river-006.wav;
#X obj 210 351 select 0 1 2 3 4 5 6 7;
#X obj 243 225 <= 4;
#X obj 237 284 random 5;
#X obj 309 204 >= 5;
#X obj 336 263 random 5;
#X msg 856 194 1;
#X msg 887 194 0;
#X obj 873 294 *~ 1;
#X obj 839 294 *~ 1;
#X obj 887 242 t b;
#X obj 887 268 s stop;
#X obj 985 215 s next;
#X obj 839 216 readsf~ 2;
#X obj 926 214 t b b;
#X msg 839 168 open ./soundfile/river-006.wav;
#X msg 1055 194 1;
#X msg 1086 194 0;
#X obj 1072 294 *~ 1;
#X obj 1038 294 *~ 1;
#X obj 1086 242 t b;
#X obj 1086 268 s stop;
#X obj 1184 215 s next;
#X obj 1038 216 readsf~ 2;
#X obj 1125 214 t b b;
#X msg 1038 168 open ./soundfile/river-006.wav;
#X obj 309 305 % 8;
#X obj 38 565 riverPanner~;
#X obj 38 591 send~ riverGainL0;
#X obj 108 612 send~ riverGainR0;
#X obj 238 565 riverPanner~;
#X obj 438 565 riverPanner~;
#X obj 638 565 riverPanner~;
#X obj 838 565 riverPanner~;
#X obj 1038 565 riverPanner~;
#X obj 839 320 riverPanner~;
#X obj 1038 320 riverPanner~;
#X obj 238 591 send~ riverGainL1;
#X obj 308 612 send~ riverGainR1;
#X obj 438 591 send~ riverGainL2;
#X obj 508 612 send~ riverGainR2;
#X obj 839 346 send~ riverGainL3;
#X obj 909 367 send~ riverGainR3;
#X obj 638 591 send~ riverGainL4;
#X obj 708 612 send~ riverGainR4;
#X obj 838 591 send~ riverGainL5;
#X obj 908 612 send~ riverGainR5;
#X obj 1038 591 send~ riverGainL6;
#X obj 1108 612 send~ riverGainR6;
#X obj 1038 346 send~ riverGainL7;
#X obj 1108 367 send~ riverGainR7;
#X obj 235 19 inlet;
#X obj 365 19 inlet;
#X obj 210 147 cyclone/urn 8;
#X obj 462 157 maxlib/scale 0 5000 100 60000;
#X connect 0 0 82 0;
#X connect 0 0 127 3;
#X connect 1 0 28 0;
#X connect 1 0 82 0;
#X connect 2 0 127 1;
#X connect 3 0 127 0;
#X connect 5 0 153 0;
#X connect 6 0 38 0;
#X connect 7 0 6 0;
#X connect 8 0 9 1;
#X connect 9 0 12 0;
#X connect 10 0 9 0;
#X connect 10 1 8 0;
#X connect 11 0 9 0;
#X connect 12 0 153 0;
#X connect 13 0 18 0;
#X connect 14 0 7 0;
#X connect 14 0 103 0;
#X connect 14 0 105 0;
#X connect 15 0 16 0;
#X connect 15 1 14 0;
#X connect 16 0 12 0;
#X connect 17 0 36 0;
#X connect 17 0 96 0;
#X connect 17 0 97 0;
#X connect 17 0 99 0;
#X connect 17 0 100 0;
#X connect 17 0 98 0;
#X connect 17 0 95 0;
#X connect 18 0 154 0;
#X connect 19 0 20 0;
#X connect 20 0 101 0;
#X connect 22 0 26 0;
#X connect 23 0 22 1;
#X connect 24 0 42 0;
#X connect 25 0 24 1;
#X connect 26 0 19 0;
#X connect 27 0 36 0;
#X connect 28 0 95 0;
#X connect 29 0 11 0;
#X connect 30 0 29 1;
#X connect 33 0 15 0;
#X connect 33 1 37 0;
#X connect 34 0 33 0;
#X connect 35 0 27 0;
#X connect 36 0 30 0;
#X connect 37 0 30 0;
#X connect 38 0 39 0;
#X connect 39 0 102 0;
#X connect 39 0 104 0;
#X connect 39 0 153 1;
#X connect 40 0 126 0;
#X connect 42 0 40 0;
#X connect 43 0 101 0;
#X connect 45 0 29 0;
#X connect 47 0 13 0;
#X connect 48 0 83 0;
#X connect 48 0 130 3;
#X connect 49 0 52 0;
#X connect 49 0 83 0;
#X connect 50 0 130 1;
#X connect 51 0 130 0;
#X connect 52 0 96 0;
#X connect 55 0 84 0;
#X connect 55 0 131 3;
#X connect 56 0 59 0;
#X connect 56 0 84 0;
#X connect 57 0 131 1;
#X connect 58 0 131 0;
#X connect 59 0 97 0;
#X connect 62 0 85 0;
#X connect 62 0 132 3;
#X connect 63 0 66 0;
#X connect 63 0 85 0;
#X connect 64 0 132 1;
#X connect 65 0 132 0;
#X connect 66 0 98 0;
#X connect 69 0 86 0;
#X connect 69 0 133 3;
#X connect 70 0 73 0;
#X connect 70 0 86 0;
#X connect 71 0 133 1;
#X connect 72 0 133 0;
#X connect 73 0 99 0;
#X connect 75 0 87 0;
#X connect 75 0 134 3;
#X connect 76 0 79 0;
#X connect 76 0 87 0;
#X connect 77 0 134 1;
#X connect 78 0 134 0;
#X connect 79 0 100 0;
#X connect 82 0 3 0;
#X connect 82 1 2 0;
#X connect 82 2 28 0;
#X connect 82 2 88 0;
#X connect 83 0 51 0;
#X connect 83 1 50 0;
#X connect 83 2 52 0;
#X connect 83 2 89 0;
#X connect 84 0 58 0;
#X connect 84 1 57 0;
#X connect 84 2 59 0;
#X connect 84 2 90 0;
#X connect 85 0 65 0;
#X connect 85 1 64 0;
#X connect 85 2 66 0;
#X connect 85 2 91 0;
#X connect 86 0 72 0;
#X connect 86 1 71 0;
#X connect 86 2 73 0;
#X connect 86 2 92 0;
#X connect 87 0 78 0;
#X connect 87 1 77 0;
#X connect 87 2 79 0;
#X connect 87 2 94 0;
#X connect 88 0 44 0;
#X connect 88 1 46 0;
#X connect 89 0 53 0;
#X connect 89 1 54 0;
#X connect 90 0 60 0;
#X connect 90 1 61 0;
#X connect 91 0 67 0;
#X connect 91 1 68 0;
#X connect 92 0 74 0;
#X connect 92 1 93 0;
#X connect 94 0 80 0;
#X connect 94 1 81 0;
#X connect 95 0 82 0;
#X connect 96 0 83 0;
#X connect 97 0 84 0;
#X connect 98 0 85 0;
#X connect 99 0 86 0;
#X connect 100 0 87 0;
#X connect 101 0 0 0;
#X connect 101 1 48 0;
#X connect 101 2 55 0;
#X connect 101 3 115 0;
#X connect 101 4 62 0;
#X connect 101 5 69 0;
#X connect 101 6 75 0;
#X connect 101 7 125 0;
#X connect 102 0 23 0;
#X connect 103 0 19 1;
#X connect 103 0 21 0;
#X connect 104 0 25 0;
#X connect 105 0 40 1;
#X connect 105 0 41 0;
#X connect 106 0 113 0;
#X connect 106 0 135 3;
#X connect 107 0 110 0;
#X connect 107 0 113 0;
#X connect 108 0 135 1;
#X connect 109 0 135 0;
#X connect 110 0 115 0;
#X connect 113 0 109 0;
#X connect 113 1 108 0;
#X connect 113 2 110 0;
#X connect 113 2 114 0;
#X connect 114 0 111 0;
#X connect 114 1 112 0;
#X connect 115 0 113 0;
#X connect 116 0 123 0;
#X connect 116 0 136 3;
#X connect 117 0 120 0;
#X connect 117 0 123 0;
#X connect 118 0 136 1;
#X connect 119 0 136 0;
#X connect 120 0 125 0;
#X connect 123 0 119 0;
#X connect 123 1 118 0;
#X connect 123 2 120 0;
#X connect 123 2 124 0;
#X connect 124 0 121 0;
#X connect 124 1 122 0;
#X connect 125 0 123 0;
#X connect 126 0 43 0;
#X connect 127 0 128 0;
#X connect 127 1 129 0;
#X connect 130 0 137 0;
#X connect 130 1 138 0;
#X connect 131 0 139 0;
#X connect 131 1 140 0;
#X connect 132 0 143 0;
#X connect 132 1 144 0;
#X connect 133 0 145 0;
#X connect 133 1 146 0;
#X connect 134 0 147 0;
#X connect 134 1 148 0;
#X connect 135 0 141 0;
#X connect 135 1 142 0;
#X connect 136 0 149 0;
#X connect 136 1 150 0;
#X connect 151 0 33 0;
#X connect 152 0 27 0;
#X connect 153 0 4 0;
#X connect 153 0 24 0;
#X connect 153 0 22 0;
#X connect 153 1 15 0;
#X connect 154 0 10 0;
